<svg baseProfile="full" height="28" version="1.1" viewBox="0 0 72 28" width="72" xmlns="http://www.w3.org/2000/svg" xmlns:ev="http://www.w3.org/2001/xml-events" xmlns:xlink="http://www.w3.org/1999/xlink"><defs /><g><path d="M4.615720524017467 27.541484716157207Q4.615720524017467 27.29694323144105 4.8755458515283845 26.899563318777293Q5.135371179039301 26.502183406113538 5.379912663755459 26.25764192139738Q5.899563318777292 25.799126637554586 6.1593886462882095 25.478165938864628Q6.419213973799127 25.157205240174672 6.633187772925764 24.54585152838428Q6.847161572052402 23.934497816593886 7.061135371179039 22.74235807860262L9.50655021834061 8.528384279475983H7.427947598253275Q5.1965065502183405 8.528384279475983 4.3406113537117905 9.032751091703057Q3.48471615720524 9.537117903930131 3.48471615720524 10.820960698689959Q3.48471615720524 11.707423580786028 3.7751091703056767 12.272925764192141Q4.065502183406113 12.838427947598253 4.065502183406113 12.960698689956333Q4.065502183406113 13.20524017467249 3.7598253275109164 13.724890829694324Q3.4541484716157203 14.244541484716159 3.0567685589519646 14.657205240174672Q2.6593886462882095 15.069868995633188 2.414847161572052 15.069868995633188Q2.3231441048034935 15.069868995633188 2.2314410480349345 14.94759825327511Q2.017467248908297 14.580786026200874 1.8799126637554586 13.969432314410481Q1.74235807860262 13.358078602620088 1.74235807860262 12.685589519650655Q1.74235807860262 10.851528384279476 2.6593886462882095 9.445414847161572Q3.576419213973799 8.039301310043669 5.257641921397379 7.259825327510917Q6.93886462882096 6.4803493449781655 9.170305676855895 6.4803493449781655H14.427947598253274Q16.017467248908297 6.4803493449781655 16.87336244541485 6.251091703056769Q17.729257641921397 6.0218340611353725 18.05021834061135 5.532751091703059Q18.37117903930131 5.043668122270745 18.37117903930131 4.218340611353714Q18.37117903930131 3.301310043668124 18.096069868995635 2.7510917030567708Q17.820960698689955 2.2008733624454173 17.820960698689955 2.1091703056768587Q17.820960698689955 1.8951965065502208 18.12663755458515 1.3755458515283863Q18.43231441048035 0.8558951965065518 18.814410480349345 0.4279475982532759Q19.196506550218338 0.0 19.441048034934497 0.0Q19.593886462882097 0.0 19.624454148471614 0.09170305676855861Q20.17467248908297 0.9781659388646311 20.17467248908297 2.475982532751093Q20.17467248908297 4.279475982532752 19.25764192139738 5.655021834061136Q18.34061135371179 7.030567685589521 16.64410480349345 7.779475982532752Q14.947598253275109 8.528384279475983 12.685589519650655 8.528384279475983H11.737991266375545L9.048034934497815 24.270742358078603Q8.986899563318778 24.759825327510917 8.83406113537118 25.05021834061135Q8.681222707423581 25.34061135371179 8.406113537117903 25.676855895196507V25.737991266375545Q8.956331877729257 25.951965065502183 9.62882096069869 25.951965065502183Q10.026200873362445 25.951965065502183 10.408296943231441 25.799126637554586Q10.790393013100436 25.646288209606986 10.912663755458516 25.646288209606986Q11.096069868995633 25.646288209606986 11.096069868995633 25.799126637554586Q11.096069868995633 26.04366812227074 10.851528384279476 26.31877729257642Q10.179039301310043 27.08296943231441 9.70524017467249 27.403930131004365Q9.231441048034934 27.724890829694324 8.83406113537118 27.724890829694324Q8.497816593886462 27.724890829694324 7.703056768558952 27.480349344978166Q6.847161572052402 27.23580786026201 6.510917030567685 27.23580786026201Q6.08296943231441 27.23580786026201 5.349344978165939 27.541484716157207Q4.860262008733624 27.724890829694324 4.7685589519650655 27.724890829694324Q4.707423580786026 27.724890829694324 4.6615720524017465 27.679039301310045Q4.615720524017467 27.633187772925766 4.615720524017467 27.541484716157207Z M18.49344978165939 27.510917030567686Q18.49344978165939 27.23580786026201 18.722707423580786 26.823144104803497Q18.951965065502183 26.41048034934498 19.227074235807862 26.227074235807862Q19.868995633187772 25.768558951965066 20.266375545851528 25.20305676855895Q20.663755458515283 24.637554585152838 20.847161572052403 23.56768558951965L22.8646288209607 11.554585152838428Q22.98689956331878 10.790393013100438 23.85807860262009 10.026200873362447Q24.729257641921397 9.262008733624455 25.432314410480352 9.262008733624455Q25.768558951965066 9.262008733624455 25.768558951965066 9.414847161572052Q25.768558951965066 9.506550218340614 25.46288209606987 9.934497816593888Q25.157205240174672 10.362445414847162 25.004366812227076 11.37117903930131L22.925764192139738 23.965065502183407Q22.74235807860262 25.065502183406114 22.253275109170307 25.58515283842795V25.61572052401747Q23.139737991266376 25.829694323144103 24.912663755458517 25.829694323144103Q27.29694323144105 25.829694323144103 29.00873362445415 24.46943231441048Q30.72052401746725 23.109170305676855 31.606986899563317 20.740174672489083Q32.493449781659386 18.37117903930131 32.493449781659386 15.406113537117905Q32.493449781659386 11.554585152838428 30.934497816593886 9.68995633187773Q29.375545851528386 7.825327510917031 26.074235807860262 7.825327510917031Q22.161572052401745 7.825327510917031 19.777292576419214 10.515283842794762Q19.685589519650655 10.637554585152838 19.517467248908297 10.820960698689957Q19.349344978165938 11.004366812227076 19.25764192139738 11.080786026200874Q19.16593886462882 11.157205240174672 19.074235807860262 11.157205240174672Q18.829694323144103 11.157205240174672 18.829694323144103 10.912663755458517Q18.829694323144103 10.69868995633188 19.04366812227074 10.209606986899566Q19.99126637554585 8.314410480349345 22.054585152838428 7.244541484716157Q24.117903930131003 6.174672489082969 26.838427947598255 6.174672489082969Q30.842794759825328 6.174672489082969 32.967248908296945 8.513100436681222Q35.09170305676856 10.851528384279476 35.09170305676856 15.100436681222709Q35.09170305676856 18.401746724890828 33.88427947598254 21.290393013100434Q32.67685589519651 24.179039301310045 30.353711790393014 25.936681222707424Q28.030567685589517 27.694323144104803 24.820960698689955 27.694323144104803Q23.812227074235807 27.694323144104803 22.283842794759828 27.449781659388645Q21.06113537117904 27.266375545851528 20.541484716157207 27.266375545851528Q19.838427947598255 27.266375545851528 19.31877729257642 27.480349344978166Q18.799126637554586 27.694323144104803 18.646288209606986 27.694323144104803Q18.49344978165939 27.694323144104803 18.49344978165939 27.510917030567686Z M40.777292576419214 27.541484716157207Q40.777292576419214 27.29694323144105 41.03711790393013 26.899563318777293Q41.29694323144105 26.502183406113538 41.5414847161572 26.25764192139738Q42.061135371179034 25.799126637554586 42.32096069868995 25.478165938864628Q42.58078602620087 25.157205240174672 42.7947598253275 24.54585152838428Q43.008733624454145 23.934497816593886 43.222707423580786 22.74235807860262L45.66812227074236 8.528384279475983H43.58951965065502Q41.35807860262008 8.528384279475983 40.50218340611353 9.032751091703057Q39.646288209606986 9.537117903930131 39.646288209606986 10.820960698689959Q39.646288209606986 11.707423580786028 39.93668122270742 12.272925764192141Q40.227074235807855 12.838427947598253 40.227074235807855 12.960698689956333Q40.227074235807855 13.20524017467249 39.92139737991266 13.724890829694324Q39.61572052401746 14.244541484716159 39.21834061135371 14.657205240174672Q38.82096069868995 15.069868995633188 38.5764192139738 15.069868995633188Q38.48471615720524 15.069868995633188 38.393013100436676 14.94759825327511Q38.17903930131004 14.580786026200874 38.0414847161572 13.969432314410481Q37.903930131004365 13.358078602620088 37.903930131004365 12.685589519650655Q37.903930131004365 10.851528384279476 38.82096069868996 9.445414847161572Q39.737991266375545 8.039301310043669 41.419213973799124 7.259825327510917Q43.1004366812227 6.4803493449781655 45.33187772925764 6.4803493449781655H50.58951965065502Q52.17903930131004 6.4803493449781655 53.03493449781659 6.251091703056769Q53.890829694323145 6.0218340611353725 54.2117903930131 5.532751091703059Q54.532751091703055 5.043668122270745 54.532751091703055 4.218340611353714Q54.532751091703055 3.301310043668124 54.25764192139738 2.7510917030567708Q53.982532751091696 2.2008733624454173 53.982532751091696 2.1091703056768587Q53.982532751091696 1.8951965065502208 54.2882096069869 1.3755458515283863Q54.5938864628821 0.8558951965065518 54.97598253275109 0.4279475982532759Q55.35807860262008 0.0 55.60262008733624 0.0Q55.75545851528384 0.0 55.78602620087336 0.09170305676855861Q56.33624454148472 0.9781659388646311 56.33624454148472 2.475982532751093Q56.33624454148472 4.279475982532752 55.419213973799124 5.655021834061136Q54.50218340611353 7.030567685589521 52.80567685589519 7.779475982532752Q51.109170305676855 8.528384279475983 48.8471615720524 8.528384279475983H47.89956331877729L45.20960698689956 24.270742358078603Q45.148471615720524 24.759825327510917 44.995633187772924 25.05021834061135Q44.842794759825324 25.34061135371179 44.56768558951965 25.676855895196507V25.737991266375545Q45.117903930131 25.951965065502183 45.790393013100434 25.951965065502183Q46.18777292576419 25.951965065502183 46.569868995633186 25.799126637554586Q46.95196506550218 25.646288209606986 47.07423580786026 25.646288209606986Q47.25764192139738 25.646288209606986 47.25764192139738 25.799126637554586Q47.25764192139738 26.04366812227074 47.01310043668122 26.31877729257642Q46.340611353711786 27.08296943231441 45.866812227074234 27.403930131004365Q45.393013100436676 27.724890829694324 44.995633187772924 27.724890829694324Q44.65938864628821 27.724890829694324 43.8646288209607 27.480349344978166Q43.008733624454145 27.23580786026201 42.67248908296943 27.23580786026201Q42.24454148471615 27.23580786026201 41.51091703056768 27.541484716157207Q41.021834061135365 27.724890829694324 40.930131004366814 27.724890829694324Q40.86899563318777 27.724890829694324 40.82314410480349 27.679039301310045Q40.777292576419214 27.633187772925766 40.777292576419214 27.541484716157207Z M57.13100436681222 22.650655021834062Q57.13100436681222 21.580786026200872 57.37554585152838 20.11353711790393L59.484716157205234 8.436681222707424Q59.331877729257634 8.436681222707424 58.72052401746724 8.375545851528386Q57.62008733624454 8.283842794759828 57.52838427947598 8.283842794759828Q55.78602620087336 8.283842794759828 54.99126637554585 9.414847161572052Q54.93013100436681 9.506550218340614 54.777292576419214 9.73580786026201Q54.624454148471614 9.965065502183407 54.50218340611353 9.965065502183407Q54.34934497816593 9.965065502183407 54.34934497816593 9.689956331877731Q54.34934497816593 9.62882096069869 54.44104803493449 9.170305676855897Q54.68558951965065 7.8864628820960725 55.6943231441048 7.183406113537119Q56.703056768558945 6.4803493449781655 58.20087336244541 6.4803493449781655L59.20960698689956 6.510917030567686Q60.06550218340611 6.572052401746728 60.585152838427945 6.572052401746728Q61.135371179039296 6.572052401746728 61.74672489082969 6.510917030567686L62.48034934497816 6.4803493449781655Q61.93013100436681 7.3056768558951966 61.165938864628814 11.707423580786028L59.698689956331876 20.14410480349345Q59.42358078602619 21.641921397379914 59.42358078602619 22.925764192139738Q59.42358078602619 26.716157205240176 62.3886462882096 26.716157205240176Q66.97379912663754 26.716157205240176 68.34934497816593 18.187772925764193L69.90829694323143 8.406113537117903Q70.03056768558952 7.6724890829694345 70.9475982532751 6.923580786026202Q71.86462882096069 6.174672489082969 72.6593886462882 6.174672489082969Q73.05676855895196 6.174672489082969 73.05676855895196 6.327510917030569Q73.05676855895196 6.388646288209607 72.75109170305677 6.862445414847162Q72.44541484716157 7.336244541484717 72.29257641921397 8.314410480349345L70.61135371179039 18.554585152838428Q70.15283842794759 21.366812227074234 68.89956331877728 23.50655021834061Q67.64628820960698 25.646288209606986 65.8122270742358 26.823144104803493Q63.97816593886462 28.0 61.83842794759825 28.0Q59.51528384279475 28.0 58.32314410480349 26.609170305676855Q57.13100436681222 25.21834061135371 57.13100436681222 22.650655021834062Z " fill="rgb(0,0,0)" transform="translate(-1.74235807860262, 0)" /></g></svg>